# xmcd CD Database Entry
#
# Track frame offsets:
# 150
# 19764
# 33842
# 53426
# 69863
# 101748
# 117776
# 134831
# 150465
# 163986
# 179663
# 201918
# 259755
# 283210
#
# Disc length: 4124 seconds
#
# Revision: 4
# Processed by: cddbd v1.4PL0 Copyright (c) Steve Scherf et al.
# Submitted via: tcd 2.0b
#
DISCID=c8101a0e
DTITLE=Eric Clapton - Timepieces Etc
DYEAR=1900
DGENRE=
TTITLE0=I Shot The Sheriff
TTITLE1=After Midnight
TTITLE2=Knockin' On Heaven's Door
TTITLE3=Wonderful Tonight
TTITLE4=Layla
TTITLE5=Cocaine
TTITLE6=Lay Down Sally
TTITLE7=Willie and the Hand Jive
TTITLE8=Promises
TTITLE9=Swing Low Sweet Chariot
TTITLE10=Let It Grow
TTITLE11=Stormy Monday
TTITLE12=Kind Hearted Woman
TTITLE13=Crossroads
EXTD=
EXTT0=
EXTT1=
EXTT2=
EXTT3=
EXTT4=
EXTT5=
EXTT6=
EXTT7=
EXTT8=
EXTT9=
EXTT10=
EXTT11=
EXTT12=
EXTT13=
PLAYORDER=
